<?xml version="1.0" encoding="UTF-8"?>
<svg xmlns="http://www.w3.org/2000/svg" xmlns:xlink="http://www.w3.org/1999/xlink" width="24px" height="24px" viewBox="0 0 24 24" version="1.1">
<g id="surface1">
<path style=" stroke:none;fill-rule:nonzero;fill:rgb(100%,62.745098%,0%);fill-opacity:1;" d="M 7.804688 19.007812 C 7.804688 20.558594 6.554688 21.8125 5.007812 21.8125 C 3.464844 21.8125 2.214844 20.558594 2.214844 19.007812 C 2.214844 17.460938 3.464844 16.207031 5.007812 16.207031 C 6.554688 16.207031 7.804688 17.460938 7.804688 19.007812 Z M 7.804688 19.007812 "/>
<path style=" stroke:none;fill-rule:nonzero;fill:rgb(100%,62.745098%,0%);fill-opacity:1;" d="M 2.214844 8.730469 L 2.214844 12.46875 C 7.351562 12.46875 11.535156 16.660156 11.535156 21.8125 L 15.261719 21.8125 C 15.261719 14.597656 9.40625 8.730469 2.214844 8.730469 Z M 2.214844 8.730469 "/>
<path style=" stroke:none;fill-rule:nonzero;fill:rgb(100%,62.745098%,0%);fill-opacity:1;" d="M 2.214844 2.1875 L 2.214844 5.925781 C 10.953125 5.925781 18.058594 13.050781 18.058594 21.8125 L 21.785156 21.8125 C 21.785156 10.992188 13.007812 2.1875 2.214844 2.1875 Z M 2.214844 2.1875 "/>
</g>
</svg>
